<svg width="24" height="24" viewBox="0 0 24 24" fill="none" xmlns="http://www.w3.org/2000/svg">
<g clip-path="url(#clip0_3399_16516)">
<path d="M11.916 5.00275L12.0151 5C12.5912 5.00028 13.0705 5.47958 13.0705 6.07082V10.9295H17.9292C18.4906 10.9295 18.9557 11.3634 18.9968 11.9197L19 12.0151C18.9997 12.5912 18.5204 13.0705 17.9292 13.0705H13.0705V17.9292C13.0705 18.4906 12.6366 18.9557 12.0803 18.9968L11.9849 19C11.4088 18.9997 10.9295 18.5204 10.9295 17.9292V13.0705H6.07082C5.5094 13.0705 5.04427 12.6366 5.00323 12.0803L5 11.9849C5.00028 11.4088 5.47958 10.9295 6.07082 10.9295H10.9295V6.07082L10.9351 5.95992C10.9841 5.48574 11.3434 5.10031 11.8101 5.01699L11.916 5.00275Z" fill="#333333"/>
</g>
<defs>
<clipPath id="clip0_3399_16516">
<rect width="24" height="24" fill="white"/>
</clipPath>
</defs>
</svg>
