<svg width="24" height="24" viewBox="0 0 24 24" fill="none" xmlns="http://www.w3.org/2000/svg">
<path d="M4.71969 12.6255L4.73999 12.6499C4.74414 12.6548 4.74834 12.6596 4.75259 12.6644L9.75259 18.2894C10.1195 18.7022 10.7516 18.7393 11.1644 18.3724C11.5771 18.0055 11.6143 17.3734 11.2474 16.9606L7.727 13L18.5 13C19.0523 13 19.5 12.5523 19.5 12C19.5 11.4477 19.0523 11 18.5 11L7.727 11L11.2474 7.03937C11.5861 6.65834 11.5805 6.09046 11.2529 5.71676L11.1644 5.6276C10.7516 5.26068 10.1195 5.29786 9.75259 5.71065L4.75259 11.3356L4.7402 11.3498C4.73323 11.358 4.72639 11.3662 4.71969 11.3746L4.75259 11.3356C4.72265 11.3693 4.69538 11.4045 4.67076 11.441C4.65284 11.4675 4.63629 11.4947 4.62104 11.5227C4.61696 11.5303 4.61304 11.5377 4.60922 11.5452C4.59534 11.5722 4.58258 11.6003 4.5711 11.629C4.56781 11.6375 4.5647 11.6456 4.56169 11.6537C4.52179 11.7614 4.5 11.8782 4.5 12C4.5 12.1218 4.52179 12.2386 4.56167 12.3465C4.5647 12.3544 4.56781 12.3625 4.57103 12.3706C4.58258 12.3998 4.59534 12.4278 4.60932 12.4551C4.61304 12.4623 4.61696 12.4697 4.62098 12.4771C4.63629 12.5053 4.65284 12.5325 4.67061 12.5589L4.71969 12.6255Z" fill="#333333"/>
</svg>
