<svg width="24" height="24" viewBox="0 0 24 24" fill="none" xmlns="http://www.w3.org/2000/svg">
<g clip-path="url(#clip0_934_8669)">
<path fill-rule="evenodd" clip-rule="evenodd" d="M20 5L12 2L4 5V10.95C4 13.4833 4.75 15.8125 6.25 17.9375C7.75 20.0625 9.66667 21.4167 12 22C14.3333 21.4167 16.25 20.0625 17.75 17.9375C19.25 15.8125 20 13.4833 20 10.95V5ZM5.5 6.05L12 3.6L18.5 6.05V10.95C18.5 13.1333 17.8958 15.1042 16.6875 16.8625C15.4792 18.6208 13.9167 19.8167 12 20.45C10.0833 19.8167 8.52083 18.6208 7.3125 16.8625C6.10417 15.1042 5.5 13.1333 5.5 10.95V6.05ZM9.16406 15.3333C9.27344 15.4444 9.40625 15.5 9.5625 15.5H14.4375C14.5938 15.5 14.7266 15.4444 14.8359 15.3333C14.9453 15.2222 15 15.0873 15 14.9286V10.7952C15 10.6365 14.9453 10.5016 14.8359 10.3905C14.7266 10.2794 14.5938 10.2238 14.4375 10.2238H13.7812V9.30952C13.7812 8.80794 13.6078 8.38095 13.2609 8.02857C12.9141 7.67619 12.4937 7.5 12 7.5C11.5063 7.5 11.0859 7.67619 10.7391 8.02857C10.3922 8.38095 10.2188 8.80794 10.2188 9.30952V10.2238H9.5625C9.40625 10.2238 9.27344 10.2794 9.16406 10.3905C9.05469 10.5016 9 10.6365 9 10.7952V14.9286C9 15.0873 9.05469 15.2222 9.16406 15.3333ZM13.1049 10.2238H10.84V9.37425C10.84 9.05567 10.9503 8.78428 11.171 8.56009C11.3917 8.3359 11.6589 8.22381 11.9725 8.22381C12.2861 8.22381 12.5532 8.3359 12.7739 8.56009C12.9946 8.78428 13.1049 9.05567 13.1049 9.37425V10.2238Z" fill="#333333"/>
</g>
<defs>
<clipPath id="clip0_934_8669">
<rect width="24" height="24" fill="white"/>
</clipPath>
</defs>
</svg>
