<svg width="24" height="24" viewBox="0 0 24 24" fill="none" xmlns="http://www.w3.org/2000/svg">
<g clip-path="url(#clip0_1_127)">
<path fill-rule="evenodd" clip-rule="evenodd" d="M15.4946 10C18.5352 10 21 12.4631 21 15.5C21 18.5369 18.5352 21 15.4946 21C12.4596 21 10 18.537 10 15.5C10 12.463 12.4596 10 15.4946 10ZM15.4946 11.4395C13.2551 11.4395 11.4395 13.2575 11.4395 15.5C11.4395 17.7425 13.2551 19.5605 15.4946 19.5605C17.74 19.5605 19.5605 17.742 19.5605 15.5C19.5605 13.258 17.74 11.4395 15.4946 11.4395ZM15 2C15.5523 2 16 2.44772 16 3V4H17C18.1046 4 19 4.89543 19 6V7.999L5.5 8C5.22386 8 5 8.22386 5 8.5V16.5C5 16.7761 5.22386 17 5.5 17L8.37533 17.0009C8.47788 17.7018 8.673 18.3726 8.94787 19.0005L5 19C3.89543 19 3 18.1046 3 17V6C3 4.89543 3.89543 4 5 4H6V3C6 2.44772 6.44772 2 7 2C7.55228 2 8 2.44772 8 3V4H14V3C14 2.44772 14.4477 2 15 2ZM15.5 12.3901C15.8663 12.3901 16.173 12.6651 16.2155 13.0332L16.2198 13.1099L16.2187 15.7562L17.4815 16.5032C17.7653 16.6709 17.8942 17.0058 17.8073 17.3179L17.7703 17.4208L17.7349 17.489C17.5485 17.8044 17.1558 17.9285 16.8172 17.7778L16.7491 17.7424L15.1338 16.7878C14.9431 16.6751 14.8153 16.4812 14.7857 16.2546L14.7802 16.1682V13.1099C14.7802 12.7124 15.1025 12.3901 15.5 12.3901Z" fill="#333333"/>
</g>
<defs>
<clipPath id="clip0_1_127">
<rect width="24" height="24" fill="white"/>
</clipPath>
</defs>
</svg>
