<?xml version="1.0" encoding="UTF-8"?>
<svg width="25px" height="25px" viewBox="0 0 25 25" version="1.1" xmlns="http://www.w3.org/2000/svg" xmlns:xlink="http://www.w3.org/1999/xlink">
    <title>Clock</title>
    <g id="Clock" stroke="none" fill="none" transform="translate(0.0374, 0.7143)" fill-rule="nonzero" stroke-width="0.1">
        <path d="M12,0.375 C5.578125,0.375 0.375,5.578125 0.375,12 C0.375,18.421875 5.578125,23.625 12,23.625 C18.421875,23.625 23.625,18.421875 23.625,12 C23.625,5.578125 18.421875,0.375 12,0.375 Z M12,21.375 C6.8203125,21.375 2.625,17.1796875 2.625,12 C2.625,6.8203125 6.8203125,2.625 12,2.625 C17.1796875,2.625 21.375,6.8203125 21.375,12 C21.375,17.1796875 17.1796875,21.375 12,21.375 Z M14.896875,16.48125 L10.9171875,13.5890625 C10.771875,13.48125 10.6875,13.3125 10.6875,13.134375 L10.6875,5.4375 C10.6875,5.128125 10.940625,4.875 11.25,4.875 L12.75,4.875 C13.059375,4.875 13.3125,5.128125 13.3125,5.4375 L13.3125,12.0796875 L16.44375,14.3578125 C16.696875,14.540625 16.7484375,14.8921875 16.565625,15.1453125 L15.684375,16.359375 C15.5015625,16.6078125 15.15,16.6640625 14.896875,16.48125 Z" id="Shape" stroke="#000000" fill="#000000"></path>
    </g>
</svg>