<?xml version="1.0" encoding="UTF-8"?>
<svg width="24px" height="24px" viewBox="0 0 24 24" version="1.1" xmlns="http://www.w3.org/2000/svg" xmlns:xlink="http://www.w3.org/1999/xlink">
    <title>Glyphs/Control/Delete outline</title>
    <g id="00_02---Employee-contract,-versioning,-availability" stroke="none" stroke-width="1" fill="none" fill-rule="evenodd">
        <g id="Group">
            <polygon id="Path" points="0 0 24 0 24 24 0 24"></polygon>
            <path d="M17.3321482,7.55624688 L17.3321482,18.222321 C17.3321482,19.1545359 16.6150014,19.9198978 15.7004386,19.9941034 L15.5544692,20 L8.44464196,20 C7.51158269,20 6.74617855,19.2812488 6.67197078,18.3680498 L6.66607411,18.222321 L6.66607411,7.55624688 L17.3321482,7.55624688 Z M15.332,9.556 L8.666,9.556 L8.666,18 L15.332,18 L15.332,9.556 Z M14.2212099,4 L15.1109383,4.88972835 L17.3321482,4.88972835 C17.7858666,4.88972835 18.1600628,5.22902311 18.2149467,5.66642439 L18.2218766,5.77767902 L18.2218766,6.66740737 L5.77812344,6.66740737 L5.77812344,5.77767902 C5.77812344,5.32560157 6.1174182,4.95153162 6.55481948,4.89665741 L6.66607411,4.88972835 L8.88906172,4.88972835 L9.77701239,4 L14.2212099,4 Z" id="Glyph-Copy" fill="#000000" fill-rule="nonzero"></path>
        </g>
    </g>
</svg>