<svg width="24" height="24" viewBox="-5.07 -3 24 24" fill="none" xmlns="http://www.w3.org/2000/svg">
  <path fill="#000000" fill-rule="evenodd" d="M8.10373 0C8.60602 0 9.08992 0.189001 9.45925 0.529434L13.22 3.99599C13.6308 4.37464 13.8645 4.90786 13.8645 5.46655V14.6896C13.8645 16.5169 12.3773 17.9986 10.5417 18H3.32534C1.48881 18 0 16.5179 0 14.6896V3.31042C0 1.48212 1.48881 0 3.32534 0H8.10373ZM7.94685 1.98153H3.41796C2.58954 1.98153 1.91796 2.6531 1.91796 3.48153V14.5127C1.91796 15.3411 2.58954 16.0127 3.41796 16.0127H10.4075C11.2359 16.0127 11.9075 15.3411 11.9075 14.5127V6.06202H9.73742C8.74852 6.06202 7.94685 5.26395 7.94685 4.27948V1.98153ZM6.88131 10.5C7.43359 10.5 7.88131 10.9477 7.88131 11.5C7.88131 12.0523 7.43359 12.5 6.88131 12.5H3.88131C3.32902 12.5 2.88131 12.0523 2.88131 11.5C2.88131 10.9477 3.32902 10.5 3.88131 10.5H6.88131ZM9.88131 7.5C10.4336 7.5 10.8813 7.94772 10.8813 8.5C10.8813 9.05228 10.4336 9.5 9.88131 9.5H3.88131C3.32902 9.5 2.88131 9.05228 2.88131 8.5C2.88131 7.94772 3.32902 7.5 3.88131 7.5H9.88131Z"/>
</svg>
