<?xml version="1.0" encoding="UTF-8"?>
<svg width="24px" height="24px" viewBox="0 0 24 24" version="1.1" xmlns="http://www.w3.org/2000/svg" xmlns:xlink="http://www.w3.org/1999/xlink">
    <title>Glyphs/Control/Edit</title>
    <g id="00_02---Employee-contract,-versioning,-availability" stroke="none" stroke-width="1" fill="none" fill-rule="evenodd">
        <g id="Icon">
            <polygon id="Path" points="0 0 24 0 24 24 0 24"></polygon>
            <path d="M5.00125,16.245799 L5.00125,18.6099151 C5.00125,18.8276627 5.17233735,18.99875 5.39008488,18.99875 L7.75420098,18.99875 C7.85529805,18.99875 7.95639512,18.9598665 8.0263854,18.8820995 L16.5185393,10.3977224 L13.6022776,7.48146073 L5.11790047,15.9658379 C5.04013349,16.0436049 5.00125,16.1369253 5.00125,16.245799 Z M18.7737816,8.14248004 C19.0770728,7.83918883 19.0770728,7.34925687 18.7737816,7.04596566 L16.9540343,5.22621841 C16.6507431,4.9229272 16.1608112,4.9229272 15.85752,5.22621841 L14.4343843,6.64935408 L17.3506459,9.56561571 L18.7737816,8.14248004 Z" id="Shape" fill="#000000"></path>
        </g>
    </g>
</svg>