<?xml version="1.0" encoding="UTF-8"?>
<svg width="24px" height="24px" viewBox="0 0 24 24" version="1.1" xmlns="http://www.w3.org/2000/svg" xmlns:xlink="http://www.w3.org/1999/xlink">
    <title>Glyphs/User/User Multiple</title>
    <g id="DOM---Bookings" stroke="none" stroke-width="1" fill="none" fill-rule="evenodd">
        <g id="Glyphs/User/User-Multiple">
            <polygon id="Path" points="0 0 24 0 24 24 0 24"></polygon>
            <path d="M6.34529323,13.6992001 C6.98659064,13.9861115 7.69403084,14.1492572 8.44173186,14.1492572 C8.83563565,14.1492572 9.21916363,14.1039779 9.58727007,14.0191771 C8.13951251,14.6947293 7.11265435,16.3547899 7.11265435,17.9622169 L7.11265435,18.6498286 C7.11265435,19.3952357 7.73094558,20 8.49302546,20 L3.38037111,20 C2.61829123,20 2,19.3952357 2,18.6498286 L2,17.9622169 C2,15.8750769 3.73121544,13.6992001 5.86503911,13.6992001 L6.34529323,13.6992001 Z M13.3845982,13.6992001 C14.0316964,13.9861115 14.7455357,14.1492572 15.5,14.1492572 C16.2544643,14.1492572 16.9712054,13.9861115 17.6154018,13.6992001 L18.1,13.6992001 C20.253125,13.6992001 22,15.8750769 22,17.9622169 L22,18.6498286 C22,19.3952357 21.3761161,20 20.6071429,20 L10.3928571,20 C9.62388393,20 9,19.3952357 9,18.6498286 L9,17.9622169 C9,15.8750769 10.746875,13.6992001 12.9,13.6992001 Z M19.6758297,16.8496 L17.2371129,16.8496 C16.9609705,16.8496 16.7371129,17.0734577 16.7371129,17.3496 L16.7371129,18.2311353 C16.7371129,18.5072776 16.9609705,18.7311353 17.2371129,18.7311353 L19.6758297,18.7311353 C19.9519721,18.7311353 20.1758297,18.5072776 20.1758297,18.2311353 L20.1758297,17.3496 C20.1758297,17.0734577 19.9519721,16.8496 19.6758297,16.8496 Z M8.44173186,5 C9.43518456,5 10.3366335,5.384812 10.9988003,6.01037989 C10.3047346,6.66418301 9.87339658,7.5829878 9.87339658,8.60045709 C9.87339658,9.61792638 10.3047346,10.5367312 10.9983346,11.1914945 C10.3366335,11.8161022 9.43518456,12.2009142 8.44173186,12.2009142 C6.40856024,12.2009142 4.76074222,10.5891471 4.76074222,8.60045709 C4.76074222,6.61176712 6.40856024,5 8.44173186,5 Z M15.5,5 C17.5515625,5 19.2142857,6.61176712 19.2142857,8.60045709 C19.2142857,10.5891471 17.5515625,12.2009142 15.5,12.2009142 C13.4484375,12.2009142 11.7857143,10.5891471 11.7857143,8.60045709 C11.7857143,6.61176712 13.4484375,5 15.5,5 Z" id="Combined-Shape" fill="#000000" fill-rule="evenodd"></path>
        </g>
    </g>
</svg>