<?xml version="1.0" encoding="UTF-8"?>
<svg width="25px" height="25px" viewBox="0 0 25 25" version="1.1" xmlns="http://www.w3.org/2000/svg" xmlns:xlink="http://www.w3.org/1999/xlink">
    <title>Glyphs/Control/External Link</title>
    <g id="00_24---Timeline" stroke="none" stroke-width="1" fill="none" fill-rule="evenodd">
        <g id="Glyphs/Control/External-Link" transform="translate(0, 1)">
            <polygon id="Path" points="0 -2.13162821e-14 24 -2.13162821e-14 24 24 0 24"></polygon>
            <polygon id="Shape" fill="#000000" fill-rule="evenodd" transform="translate(14.5583, 9.4417) rotate(-45) translate(-14.5583, -9.4417)" points="15.1829434 2.85587799 13.7829434 4.25587799 17.9687298 8.44166442 7.34794132 8.57316725 7.34794132 10.5731672 17.9687298 10.4416644 13.7829434 14.6274509 15.1829434 16.0274509 21.7687298 9.44166442"></polygon>
            <path d="M9.5,9 L9.5,11 L6.8,11 C6.3581722,11 6,11.3581722 6,11.8 L6,17.2 C6,17.6418278 6.3581722,18 6.8,18 L12.2,18 C12.6418278,18 13,17.6418278 13,17.2 L13,14.5 L15,14.5 L15,17.2 C15,18.7463973 13.7463973,20 12.2,20 L6.8,20 C5.2536027,20 4,18.7463973 4,17.2 L4,11.8 C4,10.2536027 5.2536027,9 6.8,9 L9.5,9 Z" id="Path" fill="#000000" fill-rule="nonzero"></path>
        </g>
    </g>
</svg>