<svg width="24" height="24" viewBox="0 0 24 24" fill="none" xmlns="http://www.w3.org/2000/svg">
<g clip-path="url(#clip0_1019_8860)">
<path d="M0.538462 18.9223C0.835846 18.9223 1.07692 19.1634 1.07692 19.4608V20.1538C1.07692 21.6339 2.23805 22.8428 3.69908 22.9192L3.84615 22.9231L4.53769 22.9226C4.79774 22.9225 5.01482 23.1068 5.06515 23.352L5.07615 23.4608C5.07615 23.7582 4.83513 23.9994 4.53769 23.9996L3.84615 24C1.72198 24 0 22.278 0 20.1538V19.4608C0 19.1634 0.241077 18.9223 0.538462 18.9223ZM23.4608 18.9223C23.7582 18.9223 23.9994 19.1633 23.9996 19.4608L24 20.1538C24 22.278 22.278 24 20.1538 24L19.4608 23.9996C19.1633 23.9994 18.9223 23.7582 18.9223 23.4608C18.9223 23.2007 19.1068 22.9838 19.352 22.9336L19.4608 22.9226L20.1538 22.9231C21.6339 22.9231 22.8428 21.7619 22.9192 20.3009L22.9231 20.1538L22.9226 19.4608C22.9225 19.2007 23.1068 18.9836 23.352 18.9333L23.4608 18.9223ZM16.4074 15.9787C16.6031 16.2143 16.5708 16.5639 16.3353 16.7596C15.0656 17.8147 13.4851 18.3764 11.8588 18.3764C10.2322 18.3764 8.6518 17.8148 7.3823 16.7596C7.14662 16.564 7.11439 16.2143 7.31016 15.9788C7.5059 15.7435 7.85553 15.7113 8.09097 15.9069C10.2742 17.7213 13.4431 17.7213 15.6261 15.9069C15.8617 15.7111 16.2113 15.7434 16.4074 15.9787ZM12.0003 7.16209C12.2427 7.16209 12.4522 7.31866 12.5265 7.54305L12.5479 7.6302L12.5547 7.71654V11.5089C12.5547 12.619 11.6515 13.5222 10.5415 13.5222C10.235 13.5222 9.98672 13.2737 9.98727 12.9675C9.98727 12.689 10.1924 12.4586 10.4598 12.419L10.5417 12.413C10.9681 12.413 11.3309 12.1149 11.423 11.7124L11.4403 11.6097L11.4458 11.5089V7.71654C11.4458 7.41029 11.694 7.16209 12.0003 7.16209ZM6.89489 7.41909C7.19764 7.41909 7.45689 7.62308 7.5351 7.90809L7.55299 7.9959L7.55875 8.08295V9.54148C7.55875 9.90816 7.26131 10.2053 6.89463 10.2053C6.59188 10.2053 6.33263 10.0014 6.25442 9.71634L6.23653 9.62853L6.23077 9.54148V8.08295C6.23077 7.71628 6.52821 7.41909 6.89489 7.41909ZM17.1051 7.41883C17.4081 7.41883 17.6674 7.62282 17.7456 7.90799L17.7635 7.99585L17.7692 8.08295V9.54148C17.7692 9.90811 17.4718 10.2051 17.1051 10.2051C16.8024 10.2051 16.5431 10.0011 16.4649 9.71609L16.447 9.62827L16.4412 9.54123V8.0827C16.4412 7.71615 16.7386 7.41883 17.1051 7.41883ZM4.53769 0C4.83508 0 5.07615 0.241077 5.07615 0.538462C5.07615 0.835846 4.83508 1.07692 4.53769 1.07692H3.84615C2.36609 1.07692 1.15721 2.23805 1.08076 3.69908L1.07692 3.84615V4.53769C1.07692 4.83508 0.835846 5.07615 0.538462 5.07615C0.241077 5.07615 0 4.83508 0 4.53769L0 3.84615C0 1.72198 1.72198 0 3.84615 0L4.53769 0ZM20.1538 0C22.278 0 24 1.72198 24 3.84615L23.9996 4.53769C23.9994 4.83513 23.7582 5.07615 23.4608 5.07615C23.2007 5.07615 22.9838 4.89169 22.9336 4.64648L22.9226 4.53769L22.9231 3.84615C22.9231 2.36609 21.7619 1.15721 20.3009 1.08076L20.1538 1.07692H19.4608C19.1634 1.07692 18.9223 0.835846 18.9223 0.538462C18.9223 0.241077 19.1634 0 19.4608 0H20.1538Z" fill="black"/>
</g>
<defs>
<clipPath id="clip0_1019_8860">
<rect width="24" height="24" fill="white"/>
</clipPath>
</defs>
</svg>
