<?xml version="1.0" encoding="UTF-8"?>
<svg width="24px" height="24px" viewBox="0 0 24 24" version="1.1" xmlns="http://www.w3.org/2000/svg" xmlns:xlink="http://www.w3.org/1999/xlink">
    <title>Filter Active</title>
    <g id="09_07---Timesheets---Visit-Filters" stroke="none" stroke-width="1" fill="none" fill-rule="evenodd">
        <g id="Group">
            <polygon id="Path" points="0 0 24 0 24 24 0 24"></polygon>
            <path d="M10.5,15.7658125 L10.5,12 L10.5,12 L6.75103413,7.83448237 C6.56630462,7.62922736 6.58294383,7.31308244 6.78819884,7.12835293 C6.88001119,7.04572181 6.99916031,7 7.1226812,7 L16.8773188,7 C17.1534612,7 17.3773188,7.22385763 17.3773188,7.5 C17.3773188,7.62352089 17.331597,7.74267001 17.2489659,7.83448237 L13.5,12 L13.5,12 L13.5,17.4324792 C13.5,17.7086216 13.2761424,17.9324792 13,17.9324792 C12.8830317,17.9324792 12.7697653,17.8914711 12.6799078,17.8165898 L10.6799078,16.1499232 C10.5659115,16.0549263 10.5,15.9142024 10.5,15.7658125 Z" id="Shape" fill="#000000"></path>
        </g>
    </g>
</svg>