<svg width="24" height="24" viewBox="0 0 24 24" xmlns="http://www.w3.org/2000/svg">
  <path d="M12 6.16667C15.2217 6.16667 17.8333 8.77834 17.8333 12C17.8333 15.2217 15.2217 17.8333 12 17.8333C8.77834 17.8333 6.16667 15.2217 6.16667 12C6.16667 8.77834 8.77834 6.16667 12 6.16667ZM12 7.33333C9.42267 7.33333 7.33333 9.42267 7.33333 12C7.33333 14.5773 9.42267 16.6667 12 16.6667C14.5773 16.6667 16.6667 14.5773 16.6667 12C16.6667 9.42267 14.5773 7.33333 12 7.33333ZM11.1672 8.8109C11.4515 8.86913 11.6186 9.05217 11.6402 9.35765C11.6501 9.49722 11.6158 9.63999 11.6202 9.78077C11.6254 9.94068 11.6123 10.1201 11.6804 10.2533C11.7375 10.3642 11.891 10.4511 12.0198 10.4922C12.1562 10.5357 12.3217 10.4934 12.3759 10.3363C12.4362 10.1616 12.4657 9.97378 12.4908 9.78914C12.5135 9.62284 12.486 9.44658 12.5275 9.28666C12.5997 9.0107 12.8114 8.85637 13.0631 8.84919C13.3514 8.84081 13.6058 9.0115 13.7278 9.29583C13.8224 9.51637 13.7749 9.73171 13.5715 9.92991C13.4555 10.0432 13.3251 10.1421 13.1998 10.2462C13.004 10.4093 12.9215 10.6266 12.9889 10.8053C13.1129 11.1335 13.5017 11.212 13.7498 10.9568C13.863 10.8404 13.9675 10.7155 14.0784 10.5963C14.2862 10.3734 14.5841 10.3112 14.8325 10.4376C15.0961 10.5716 15.2468 10.8507 15.1998 11.1187C15.1503 11.3999 14.9143 11.6204 14.6128 11.6483C14.5019 11.6583 14.3878 11.6284 14.2754 11.6296C14.1151 11.6312 13.952 11.63 13.7944 11.6559C13.6022 11.6874 13.5093 11.8314 13.4862 12.0148C13.4615 12.2014 13.5663 12.3418 13.7171 12.4092C13.8519 12.4694 14.0158 12.4906 14.1649 12.4846C14.4174 12.4746 14.661 12.469 14.8816 12.6158C15.0929 12.7566 15.1723 12.9619 15.1428 13.2028C15.1085 13.4796 14.9174 13.6435 14.6734 13.7308C14.4513 13.8106 14.2363 13.7651 14.0704 13.5829C13.9464 13.4465 13.8315 13.3021 13.7111 13.1625C13.5352 12.9579 13.3063 12.9101 13.1061 13.0345C12.8477 13.1948 12.8162 13.4421 13.0104 13.7149C13.134 13.8305 13.2605 13.9434 13.3813 14.0622C13.5631 14.2409 13.6756 14.4498 13.6054 14.7118C13.5396 14.9567 13.3761 15.1134 13.1297 15.1808C12.8114 15.2678 12.48 15.0971 12.3867 14.7784C12.3496 14.6524 12.3512 14.5136 12.3452 14.3804C12.3424 14.3178 12.3648 14.2544 12.3743 14.1914C12.411 13.9489 12.3979 13.7224 12.169 13.5673C12.0346 13.4764 11.8978 13.4532 11.753 13.5486C11.5137 13.7061 11.4464 13.9398 11.5002 14.1986C11.556 14.4654 11.5445 14.6979 11.353 14.912C11.0954 15.2004 10.7058 15.2275 10.435 14.9623C10.1547 14.6875 10.1579 14.3075 10.4462 14.0455C10.5718 13.931 10.7058 13.8253 10.8326 13.7121C11.1257 13.4509 11.0827 13.0441 10.7525 12.9149C10.569 12.8431 10.4147 12.9049 10.2819 13.0222C10.1495 13.139 10.0306 13.2706 9.90821 13.3982C9.69326 13.6227 9.40135 13.6857 9.15449 13.5581C8.87893 13.4158 8.73775 13.1067 8.81073 12.806C8.87414 12.5432 9.1202 12.3538 9.42846 12.3478C9.57641 12.345 9.72477 12.3785 9.87272 12.3793C9.98358 12.3813 10.0996 12.3757 10.2049 12.3442C10.4039 12.2848 10.498 12.1265 10.5108 11.9283C10.5235 11.7281 10.3931 11.5965 10.2233 11.5558C10.0282 11.5091 9.81729 11.498 9.61629 11.5115C9.26775 11.5351 9.02209 11.4027 8.89687 11.082C8.79039 10.81 8.88052 10.5018 9.11262 10.3427C9.3515 10.1792 9.69526 10.2051 9.93573 10.4268C10.0905 10.5696 10.2113 10.7498 10.3684 10.8898C10.5778 11.0768 10.8502 11.0709 10.9985 10.9022C11.1584 10.7199 11.1225 10.3945 10.9231 10.2115C10.7979 10.097 10.6695 9.98535 10.5511 9.86411C10.3612 9.6699 10.323 9.34847 10.4522 9.11319C10.581 8.8783 10.8797 8.75228 11.1672 8.8109ZM11.3626 12.0244C11.0946 12.15 10.8912 12.3438 10.8187 12.6066C10.7764 12.9695 11.3399 12.9508 11.4483 12.6856C11.4818 12.6585 11.513 12.6309 11.5425 12.6026C11.7147 12.5292 11.8535 12.268 11.6916 12.0989C11.6274 12.0312 11.4627 11.9937 11.3626 12.0244ZM12.3273 12.0387C11.968 12.1053 12.1526 12.6381 12.4378 12.6636C12.4732 12.6876 12.5091 12.7095 12.5446 12.729C12.6651 12.8718 12.9558 12.9276 13.0702 12.7235C13.1161 12.6417 13.1029 12.4734 13.0443 12.3869C12.8449 12.1679 12.6001 12.0308 12.3273 12.0387ZM11.9229 10.8447C11.8308 10.8591 11.7064 10.9736 11.6749 11.0733C11.6262 11.3652 11.6701 11.6423 11.8451 11.8517C12.1203 12.0926 12.4242 11.6184 12.2675 11.3787C12.2643 11.3361 12.2591 11.2946 12.2527 11.2543C12.2902 11.0709 12.1542 10.8085 11.9229 10.8447Z" fill="#000000"/>
</svg>
