<?xml version="1.0" encoding="UTF-8"?>
<svg width="24px" height="24px" viewBox="0 0 24 24" version="1.1" xmlns="http://www.w3.org/2000/svg" xmlns:xlink="http://www.w3.org/1999/xlink">
    <title>Glyphs/Map Pin</title>
    <defs>
        <path d="M0,0 L24,0 L24,24 L0,24 L0,0 Z" id="path-1"></path>
    </defs>
    <g id="Glyphs/Map-Pin" stroke="none" fill="none" xlink:href="#path-1" fill-rule="evenodd" stroke-width="1">
        <g id="Map/Pin" transform="translate(5, 3)" fill="#000000">
            <path d="M7.00005192,0 C9.20321149,0 11.2406469,1.00396045 12.5689437,2.75376482 C14.4241722,5.2002101 14.4757064,8.56321728 12.7226637,11.0617419 L12.5679835,11.2737425 L7.68915023,17.6588892 C7.64275576,17.7196077 7.58858253,17.7739295 7.52803012,17.8204513 C7.1767269,18.0903536 6.68540691,18.0494818 6.38255112,17.7414404 L6.3109536,17.6588892 L1.43116014,11.272481 C-0.477074945,8.75613733 -0.477074945,5.27010853 1.43128954,2.75359427 C2.75945696,1.00396045 4.79689234,0 7.00005192,0 Z M7,9 C8.20812289,9 9.1875,8.04061018 9.1875,6.85714286 C9.1875,5.67367554 8.20812289,4.71428571 7,4.71428571 C5.79187711,4.71428571 4.8125,5.67367554 4.8125,6.85714286 C4.8125,8.04061018 5.79187711,9 7,9 Z" id="Shape"></path>
        </g>
    </g>
</svg>