<svg width="24" height="24" viewBox="0 0 24 24" fill="none" xmlns="http://www.w3.org/2000/svg">
<g clip-path="url(#clip0_919_8805)">
<path fill-rule="evenodd" clip-rule="evenodd" d="M15.1875 20.3246V17.2729H17.347V20.3246C17.347 20.6103 17.5786 20.8418 17.8643 20.8418H20.4828C20.7685 20.8418 21 20.6103 21 20.3246V3.67585C21.0002 3.39012 20.7687 3.1584 20.483 3.15814C20.4763 3.15814 20.4699 3.1584 20.4633 3.15861C20.4482 3.15814 20.4331 3.15814 20.418 3.15861C20.4072 3.16047 20.3963 3.16254 20.3857 3.16502L3.42022 6.30736C3.17546 6.35412 2.99877 6.56888 3.00001 6.81798V20.3244C3.00001 20.6101 3.23153 20.8416 3.51725 20.8416H14.6702C14.9559 20.8416 15.1875 20.6101 15.1875 20.3246ZM14.4441 7.71033C14.4428 7.44364 14.6443 7.21978 14.9096 7.19309C14.9268 7.19226 14.9441 7.19226 14.9613 7.19309H17.4828C17.7685 7.19309 18 7.4246 18 7.71033V10.3288C18 10.6145 17.7685 10.846 17.4828 10.846H14.9613C14.6756 10.846 14.4441 10.6145 14.4441 10.3288V7.71033ZM9.55615 15.4431C9.55615 15.7288 9.32463 15.9603 9.03891 15.9603H6.52367C6.23794 15.9603 6.00642 15.7288 6.00642 15.4431V12.8246C6.00518 12.5579 6.2067 12.334 6.47194 12.3074C6.48911 12.3065 6.50649 12.3065 6.52367 12.3074H9.0387C9.32442 12.3074 9.55594 12.5389 9.55594 12.8246L9.55615 15.4431ZM9.55615 10.3288C9.55615 10.6145 9.32463 10.846 9.03891 10.846H6.52367C6.23794 10.846 6.00642 10.6145 6.00642 10.3288V7.71033C6.00518 7.44364 6.2067 7.21978 6.47194 7.19309C6.48911 7.19226 6.50649 7.19226 6.52367 7.19309H9.0387C9.32442 7.19309 9.55594 7.4246 9.55594 7.71033L9.55615 10.3288ZM13.7781 15.4431C13.7781 15.7288 13.5466 15.9603 13.2608 15.9603H10.7392C10.4535 15.9603 10.2219 15.7288 10.2219 15.4431V12.8246C10.2207 12.5579 10.4222 12.334 10.6875 12.3074C10.7046 12.3065 10.722 12.3065 10.7392 12.3074H13.2608C13.5466 12.3074 13.7781 12.5389 13.7781 12.8246V15.4431ZM13.7781 10.3288C13.7781 10.6145 13.5466 10.846 13.2608 10.846H10.7392C10.4535 10.846 10.2219 10.6145 10.2219 10.3288V7.71033C10.2207 7.44364 10.4222 7.21978 10.6875 7.19309C10.7046 7.19226 10.722 7.19226 10.7392 7.19309H13.2608C13.5466 7.19309 13.7781 7.4246 13.7781 7.71033V10.3288ZM14.4441 15.4431V12.8246C14.4428 12.5579 14.6443 12.334 14.9096 12.3074C14.9268 12.3065 14.9441 12.3065 14.9613 12.3074H17.4828C17.7685 12.3074 18 12.5389 18 12.8246V15.4431C18 15.7288 17.7685 15.9603 17.4828 15.9603H14.9613C14.6756 15.9603 14.4441 15.7286 14.4441 15.4431Z" fill="#333333"/>
</g>
<defs>
<clipPath id="clip0_919_8805">
<rect width="24" height="24" fill="white"/>
</clipPath>
</defs>
</svg>
