<?xml version="1.0" encoding="UTF-8"?>
<svg width="24px" height="24px" viewBox="0 0 24 24" version="1.1" fill="none" xmlns="http://www.w3.org/2000/svg" xmlns:xlink="http://www.w3.org/1999/xlink">
    <title>Recurs</title>
    <g id="Icon">
        <polygon id="Path" points="0 0 24 0 24 24 0 24"></polygon>
        <path id="Combined-Shape" fill="#000000" fill-rule="evenodd" clip-rule="evenodd" d="M19.0724 12.2816C19.4735 12.1034 19.9436 12.284 20.1217 12.6853C21.0674 14.8134 20.6238 17.243 18.9916 18.8745C17.9288 19.9375 16.5287 20.4965 15.0942 20.4965C14.3645 20.4965 13.6269 20.35 12.9196 20.0537L13.1458 21.1382C13.2263 21.5254 12.9777 21.9043 12.5908 21.9851C12.5417 21.9949 12.4925 22 12.4443 22C12.1123 22 11.8146 21.7679 11.7442 21.4301L11.253 19.0716C11.1973 18.8053 11.2978 18.5305 11.5119 18.3627L13.4015 16.8804C13.7125 16.6362 14.1625 16.6907 14.4065 17.0017C14.6507 17.3129 14.5962 17.7627 14.2852 18.0067L13.5413 18.59C15.0397 19.2136 16.7271 18.8906 17.8671 17.7507C19.0302 16.5878 19.3448 14.8527 18.6686 13.3309C18.4902 12.9295 18.671 12.4597 19.0724 12.2816ZM17.6566 7.94832C18.0445 7.8678 18.423 8.11633 18.5035 8.50299L18.995 10.8615C19.0504 11.1281 18.9502 11.4029 18.7361 11.5707L16.8469 13.0527C16.7158 13.1556 16.5603 13.2055 16.4056 13.2055C16.1932 13.2055 15.9832 13.1113 15.842 12.9314C15.5978 12.6202 15.6523 12.1704 15.9632 11.9265L16.7086 11.3417L16.6647 11.3272C15.1434 10.6503 13.4075 10.9649 12.2437 12.1282C11.0804 13.2923 10.766 15.0272 11.4429 16.5475C11.6215 16.9487 11.4412 17.4187 11.0399 17.5973C10.935 17.6441 10.8251 17.6663 10.7171 17.6663C10.4124 17.6663 10.1219 17.4906 9.99032 17.1945C9.04345 15.0677 9.48651 12.6378 11.1192 11.004C12.7536 9.37103 15.1834 8.92797 17.311 9.8746L17.3288 9.88473L17.1017 8.79515C17.0212 8.40801 17.2698 8.02883 17.6566 7.94832ZM7.39004 2C7.8061 2 8.14575 2.34037 8.14575 2.75547V3.36872H12.6981V2.75547C12.6981 2.34061 13.0378 2 13.4538 2H14.0111C14.4262 2 14.7669 2.34037 14.7669 2.75547V3.36872H16.6285C17.0844 3.36872 17.4571 3.74067 17.4571 4.19651V6.93347H16.2156L4.62849 6.93178V16.0358H8.1026V17.4385H4.21508C3.75996 17.4385 3.38729 17.0658 3.38729 16.61V4.19651C3.38729 3.74067 3.76021 3.36872 4.21508 3.36872H6.077V2.75547C6.077 2.34061 6.41762 2 6.83272 2H7.39004Z" />
    </g>
</svg>
