<svg width="24" height="24" viewBox="0 0 24 24" fill="none" xmlns="http://www.w3.org/2000/svg">
<path d="M13.5759 2.85953C14.1433 1.88245 15.341 1.47271 16.3181 1.88245C17.1375 2.22915 17.894 2.67041 18.6189 3.20623C19.4699 3.8366 19.7221 5.06583 19.1547 6.04291C18.8395 6.61024 18.8395 7.30365 19.1547 7.87099C19.4699 8.43832 20.0688 8.78503 20.7307 8.78503C21.8653 8.78503 22.8109 9.63603 22.937 10.7392C23 11.1489 23 11.5902 23 11.9999C23 12.4097 23 12.8509 22.937 13.2607C22.8109 14.3638 21.8653 15.2148 20.7307 15.2148C20.1003 15.2148 19.4699 15.5615 19.1547 16.1289C18.8395 16.6962 18.8395 17.3896 19.1547 17.9569C19.7221 18.934 19.4699 20.1317 18.6189 20.7936C17.894 21.3294 17.1375 21.7707 16.3181 22.1174C16.0344 22.212 15.7822 22.275 15.4986 22.275C14.7421 22.275 13.9857 21.8653 13.5759 21.1403C13.2607 20.573 12.6304 20.2263 12 20.2263C11.3696 20.2263 10.7393 20.573 10.4241 21.1403C9.85673 22.1174 8.65903 22.5271 7.68195 22.1174C6.86246 21.7707 6.10602 21.3294 5.38109 20.7936C4.53009 20.1633 4.27794 18.934 4.84527 17.9569C5.16046 17.3896 5.16046 16.6962 4.84527 16.1289C4.53009 15.5615 3.93123 15.2148 3.26934 15.2148C2.13467 15.2148 1.18911 14.3638 1.06304 13.2607C1.03152 12.8509 1 12.4097 1 11.9999C1 11.5902 1 11.1489 1.06304 10.7392C1.18911 9.63603 2.13467 8.78503 3.26934 8.78503C3.89971 8.78503 4.53009 8.43832 4.84527 7.87099C5.16046 7.30365 5.16046 6.61024 4.84527 6.04291C4.27794 5.06583 4.53009 3.86812 5.38109 3.20623C6.10602 2.67041 6.86246 2.22915 7.68195 1.88245C8.69054 1.47271 9.85673 1.88245 10.4241 2.85953C10.7393 3.42686 11.3696 3.77357 12 3.77357C12.6304 3.77357 13.2607 3.42686 13.5759 2.85953ZM15.6246 3.58445C15.4355 3.4899 15.2779 3.61597 15.1834 3.77357C14.5215 4.90824 13.3238 5.60165 12 5.60165C10.6762 5.60165 9.47851 4.90824 8.81662 3.77357C8.72206 3.64749 8.53295 3.52142 8.37536 3.58445C7.68195 3.86812 7.05158 4.24635 6.45272 4.68761C6.32665 4.78216 6.32665 5.00279 6.4212 5.16039C7.08309 6.29506 7.08309 7.68188 6.4212 8.81655C5.79083 9.9197 4.5616 10.6446 3.26934 10.6446C3.08023 10.6446 2.92264 10.7707 2.89112 10.9598C2.8596 11.3065 2.82808 11.6532 2.82808 11.9999C2.82808 12.3466 2.8596 12.6933 2.89112 13.04C2.89112 13.2292 3.04871 13.3552 3.26934 13.3552C4.5616 13.3552 5.75931 14.0486 6.4212 15.1833C7.05158 16.318 7.08309 17.7048 6.4212 18.8395C6.32665 18.9971 6.29513 19.2177 6.45272 19.3122C7.05158 19.7535 7.68195 20.1317 8.37536 20.4154C8.56447 20.51 8.72206 20.3839 8.81662 20.2263C9.47851 19.0916 10.6762 18.3982 12 18.3982C13.3238 18.3982 14.5215 19.0916 15.1834 20.2263C15.2779 20.3524 15.467 20.4784 15.6246 20.4154C16.3181 20.1317 16.9484 19.7535 17.5473 19.3122C17.6734 19.2177 17.6734 18.9971 17.5788 18.8395C16.9169 17.7048 16.9169 16.318 17.5788 15.1833C18.2092 14.0802 19.4384 13.3552 20.7307 13.3552C20.9198 13.3552 21.0774 13.2292 21.1089 13.04C21.1719 12.6933 21.1719 12.3466 21.1719 11.9999C21.1719 11.6532 21.1404 11.3065 21.1089 10.9598C21.1089 10.7707 20.9513 10.6446 20.7307 10.6446C19.4384 10.6446 18.2407 9.95122 17.5788 8.81655C16.9484 7.68188 16.9169 6.29506 17.5788 5.16039C17.6734 5.00279 17.7049 4.78216 17.5473 4.68761C16.9484 4.24635 16.2865 3.86812 15.6246 3.58445ZM12 8.34377C14.0172 8.34377 15.6562 9.98274 15.6562 11.9999C15.6562 14.0171 14.0172 15.6561 12 15.6561C9.98281 15.6561 8.34384 14.0171 8.34384 11.9999C8.34384 9.98274 9.98281 8.34377 12 8.34377ZM12 10.1718C10.9914 10.1718 10.1719 10.9913 10.1719 11.9999C10.1719 13.0085 10.9914 13.828 12 13.828C13.0086 13.828 13.8281 13.0085 13.8281 11.9999C13.8281 10.9913 13.0086 10.1718 12 10.1718Z" fill="black"/>
</svg>
