<?xml version="1.0" encoding="UTF-8"?>
<svg width="24px" height="24px" viewBox="0 0 24 24" version="1.1" xmlns="http://www.w3.org/2000/svg" xmlns:xlink="http://www.w3.org/1999/xlink">
    <title>Glyphs/Web Nav/Outlines/Time glass</title>
    <g id="DOM---Bookings" stroke="none" stroke-width="1" fill="none" fill-rule="evenodd">
        <g id="Glyphs/Web-Nav/Outlines/Time-glass">
            <polygon id="Path" points="0 0 24 0 24 24 0 24"></polygon>
            <path d="M13.6631555,12.8955987 C15.5379293,13.8324663 17.2297129,16.2385946 17.2301797,18.0105428 L17.2304404,19.0000631 L6.62991901,19.0000046 L6.63017963,18.0105427 C6.6306395,16.2646975 8.27776975,13.9005552 10.1456445,12.9199085 L10.1976839,12.8940314 L11.92646,12.0277319 Z M17.9301797,5.01284409 C17.9301797,5.01396235 17.9301772,5.01507448 17.9301459,5.01610948 L17.2304431,5.01610947 L17.2301797,6.01584603 C17.2297145,7.78174428 15.5446237,10.1644241 13.6624298,11.1069091 L11.930359,11.9742219 L10.1976839,11.1059686 L10.1288102,11.0714556 C8.27109448,10.0959403 6.63063794,7.75577763 6.63017963,6.01584606 L6.62991629,5.01610947 L5.93023116,5.01610948 C5.9301846,5.01503838 5.93017967,5.01394256 5.93017967,5.01284409 C5.93017967,5.00804653 5.92999677,5.00376296 5.9296185,5.00000001 L17.9300949,5.00000001 C17.9301591,5.00406577 17.9301797,5.00839948 17.9301797,5.01284409 Z" id="Path" stroke="#000000" stroke-width="2" fill-rule="nonzero"></path>
        </g>
    </g>
</svg>