<svg width="24" height="24" viewBox="0 0 24 24" fill="none" xmlns="http://www.w3.org/2000/svg">
<g clip-path="url(#clip0_920_8449)">
<path d="M21.9999 19.59L17.3099 14.9C18.3699 13.55 18.9999 11.85 18.9999 10C18.9999 5.58 15.4199 2 10.9999 2C6.91995 2 3.55995 5.05 3.06995 9H5.08995C5.56995 6.17 8.02995 4 10.9999 4C14.3099 4 16.9999 6.69 16.9999 10C16.9999 13.31 14.3099 16 10.9999 16C8.57995 16 6.49995 14.56 5.54995 12.5H3.39995C4.44995 15.69 7.45995 18 10.9999 18C12.8499 18 14.5499 17.37 15.8999 16.31L20.5899 21L21.9999 19.59Z" fill="#333333"/>
<path d="M8.43 8.69L9.65 14H11.29L12.55 10.22L13.5 12.5H15.5V11H14.5L13.25 8H11.71L10.59 11.37L9.35 6H7.7L6.45 10H1V11.5H7.55L8.43 8.69Z" fill="#333333"/>
</g>
<defs>
<clipPath id="clip0_920_8449">
<rect width="24" height="24" fill="white"/>
</clipPath>
</defs>
</svg>
