<svg xmlns:xlink="http://www.w3.org/1999/xlink" xmlns="http://www.w3.org/2000/svg"   viewBox="0 0 24 24" fill="none" stroke="currentColor" stroke-width="2" stroke-linecap="round" stroke-linejoin="round" class="lucide lucide-file-text" aria-hidden="true" style="vertical-align: bottom;" width="1"  height="1" ><path d="M6 22a2 2 0 0 1-2-2V4a2 2 0 0 1 2-2h8a2.4 2.4 0 0 1 1.704.706l3.588 3.588A2.4 2.4 0 0 1 20 8v12a2 2 0 0 1-2 2z" stroke="#9CA3AF" fill="none" stroke-width="2px"></path><path d="M14 2v5a1 1 0 0 0 1 1h5" stroke="#9CA3AF" fill="none" stroke-width="2px"></path><path d="M10 9H8" stroke="#9CA3AF" fill="none" stroke-width="2px"></path><path d="M16 13H8" stroke="#9CA3AF" fill="none" stroke-width="2px"></path><path d="M16 17H8" stroke="#9CA3AF" fill="none" stroke-width="2px"></path></svg>