<svg xmlns:xlink="http://www.w3.org/1999/xlink" xmlns="http://www.w3.org/2000/svg"   viewBox="0 0 24 24" fill="none" stroke="currentColor" stroke-width="2" stroke-linecap="round" stroke-linejoin="round" class="lucide lucide-building2 lucide-building-2" aria-hidden="true" style="vertical-align: bottom;" width="1"  height="1" ><path d="M10 12h4" stroke="#9CA3AF" fill="none" stroke-width="2px"></path><path d="M10 8h4" stroke="#9CA3AF" fill="none" stroke-width="2px"></path><path d="M14 21v-3a2 2 0 0 0-4 0v3" stroke="#9CA3AF" fill="none" stroke-width="2px"></path><path d="M6 10H4a2 2 0 0 0-2 2v7a2 2 0 0 0 2 2h16a2 2 0 0 0 2-2V9a2 2 0 0 0-2-2h-2" stroke="#9CA3AF" fill="none" stroke-width="2px"></path><path d="M6 21V5a2 2 0 0 1 2-2h8a2 2 0 0 1 2 2v16" stroke="#9CA3AF" fill="none" stroke-width="2px"></path></svg>