<?xml version="1.0" encoding="UTF-8"?>
<svg width="93px" height="29px" viewBox="0 0 93 29" version="1.1" xmlns="http://www.w3.org/2000/svg" xmlns:xlink="http://www.w3.org/1999/xlink">
    <title>Logo / PASS Full White</title>
    <g id="01_02---Runs-Management---Pay-or-charge-for-a-run" stroke="none" stroke-width="1" fill="none" fill-rule="evenodd">
        <g id="Logo-/-PASS-Full" fill="#FFFFFF" transform="translate(0, -0.0002)">
            <path d="M87.5877811,0 C90.2100762,0 92.3353549,2.0917377 92.3353549,4.67210656 L92.3353549,24.2120164 C92.3353549,26.791623 90.2100762,28.884123 87.5877811,28.884123 L68.2018549,28.884123 C65.5803221,28.884123 63.4535189,26.791623 63.4535189,24.2120164 L63.4535189,4.67210656 C63.4535189,2.0917377 65.5803221,0 68.2018549,0 Z M77.8950467,3.6096959 C71.9125549,3.6096959 67.0635959,8.45865492 67.0635959,14.4403844 C67.0635959,20.4228762 71.9125549,25.2718352 77.8950467,25.2718352 C83.8767762,25.2718352 88.7257352,20.4228762 88.7257352,14.4403844 C88.7257352,8.45865492 83.8767762,3.6096959 77.8950467,3.6096959 Z M38.4409402,7.26482459 C40.4671205,7.26482459 42.5596205,7.69628361 44.1337598,8.5813082 L42.602309,12.2692918 C41.1158336,11.5138574 39.7124484,11.1456689 38.3982516,11.1456689 C36.9094893,11.1456689 36.4345795,11.5771279 36.4345795,12.0954885 C36.4345795,13.9059393 44.7809484,12.3965951 44.7809484,17.9598246 C44.7809484,20.7200951 42.4307926,23.0496689 37.7510631,23.0496689 C35.2263418,23.0496689 32.6825631,22.4253492 31.1739811,21.4968738 L32.8121533,17.7898328 C34.2361205,18.6283574 36.1342352,19.1680623 37.7945139,19.1680623 C39.2390631,19.1680623 39.7558992,18.867718 39.7558992,18.3485951 C39.7558992,16.4527672 31.4118172,17.9834557 31.4118172,12.3531443 C31.4118172,9.55170984 33.761973,7.26482459 38.4409402,7.26482459 Z M52.3885008,7.26482459 C54.4146811,7.26482459 56.5071811,7.69628361 58.0813205,8.5813082 L56.5498697,12.2692918 C55.0633943,11.5138574 53.6607713,11.1456689 52.3473369,11.1456689 C50.8578123,11.1456689 50.3829025,11.5771279 50.3829025,12.0954885 C50.3829025,13.9059393 58.728509,12.3965951 58.728509,17.9598246 C58.728509,20.7200951 56.3783533,23.0496689 51.6986238,23.0496689 C49.1746648,23.0496689 46.6308861,22.4253492 45.1215418,21.4968738 L46.7597139,17.7898328 C48.1836811,18.6283574 50.0817959,19.1680623 51.7428369,19.1680623 C53.1858615,19.1680623 53.7034598,18.867718 53.7034598,18.3485951 C53.7034598,16.4527672 45.3593779,17.9834557 45.3593779,12.3531443 C45.3593779,9.55170984 47.7095336,7.26482459 52.3885008,7.26482459 Z M22.5741492,7.26421475 C26.9733541,7.26421475 30.0133869,9.93987049 30.0133869,14.6607639 L30.0133869,22.7052639 L24.9250672,22.7052639 L24.9250672,19.6637066 L20.1370918,19.6637066 L20.1370918,22.7052639 L15.1349115,22.7052639 L15.1349115,14.6607639 C15.1349115,9.93987049 18.1749443,7.26421475 22.5741492,7.26421475 Z M7.26695902,7.61006803 C11.4717787,7.61006803 14.1451475,9.80928934 14.1451475,13.3028877 C14.1451475,16.7957238 11.4717787,18.997232 7.26695902,18.997232 L5.08908197,18.997232 L5.08908197,22.704273 L0,22.704273 L0,7.61006803 L7.26695902,7.61006803 Z M82.4303213,8.42404672 L84.8368869,10.8306123 L75.2098623,20.4568746 L70.3967311,15.645268 L72.804059,13.2371779 L75.2098623,15.645268 L82.4303213,8.42404672 Z M22.5314607,11.3844197 C21.1517066,11.3844197 20.1370918,12.2900262 20.1370918,14.2315918 L20.1370918,15.8255508 L24.9250672,15.8255508 L24.9250672,14.2315918 C24.9250672,12.2900262 23.9112148,11.3844197 22.5314607,11.3844197 Z M6.9437459,11.5351254 L5.08908197,11.5351254 L5.08908197,15.0714123 L6.9437459,15.0714123 C8.34560656,15.0714123 9.01337705,14.4028795 9.01337705,13.3028877 C9.01337705,12.2036582 8.34560656,11.5351254 6.9437459,11.5351254 Z" id="PASS"></path>
        </g>
    </g>
</svg>