<?xml version="1.0" encoding="UTF-8"?>
<svg width="24px" height="24px" viewBox="0 0 24 24" version="1.1" xmlns="http://www.w3.org/2000/svg" xmlns:xlink="http://www.w3.org/1999/xlink">
    <title>Filters</title>
    <g id="09_07---Timesheets---Visit-Filters" stroke="none" stroke-width="1" fill="none" fill-rule="evenodd">
        <g id="Icon">
            <polygon id="Path" points="0 0 24 0 24 24 0 24"></polygon>
            <path d="M15,17 C15,16.4477153 14.5522847,16 14,16 L10,16 C9.44771525,16 9,16.4477153 9,17 C9,17.5522847 9.44771525,18 10,18 L14,18 C14.5522847,18 15,17.5522847 15,17 Z M18,12 C18,11.4477153 17.5522847,11 17,11 L7,11 C6.44771525,11 6,11.4477153 6,12 C6,12.5522847 6.44771525,13 7,13 L17,13 C17.5522847,13 18,12.5522847 18,12 Z M4,8 L20,8 C20.5522847,8 21,7.55228475 21,7 C21,6.44771525 20.5522847,6 20,6 L4,6 C3.44771525,6 3,6.44771525 3,7 C3,7.55228475 3.44771525,8 4,8 Z" id="Glyph" fill="#000000"></path>
        </g>
    </g>
</svg>