<?xml version="1.0" encoding="UTF-8"?>
<svg width="24px" height="24px" viewBox="0 0 24 24" version="1.1" xmlns="http://www.w3.org/2000/svg" xmlns:xlink="http://www.w3.org/1999/xlink">
    <title>Warning</title>
    <g id="09_07---Timesheets---Visit-Filters" stroke="none" stroke-width="1" fill="none" fill-rule="evenodd">
        <g id="Icon">
            <polygon id="Path" points="0 0 24 0 24 24 0 24"></polygon>
            <path d="M10.27,3.99 C11.04,2.66 12.96,2.66 13.73,3.99 L21.26,17 C22.03,18.33 21.07,20 19.53,20 L4.47,20 C2.93,20 1.97,18.33 2.74,17 Z M12,15 C11.4477153,15 11,15.4477153 11,16 C11,16.5522847 11.4477153,17 12,17 C12.5522847,17 13,16.5522847 13,16 C13,15.4477153 12.5522847,15 12,15 Z M12,7 C11.4477153,7 11,7.44771525 11,8 L11,12 C11,12.5522847 11.4477153,13 12,13 C12.5522847,13 13,12.5522847 13,12 L13,8 C13,7.44771525 12.5522847,7 12,7 Z" id="Shape" fill="#000000"></path>
        </g>
    </g>
</svg>