<?xml version="1.0" encoding="UTF-8"?>
<svg width="44px" height="44px" viewBox="0 0 44 44" version="1.1" xmlns="http://www.w3.org/2000/svg" xmlns:xlink="http://www.w3.org/1999/xlink">
    <title>Buttons/Other/Tertiary Dark</title>
    <g id="Buttons/Other/Tertiary-Dark" stroke="none" fill="none" fill-rule="evenodd" stroke-width="1">
        <g id="Button/Contained/No-icon-Copy">
            <rect id="Elevation" x="0" y="0" width="44" height="44" rx="22"></rect>
            <g id="Fill" fill="#DCD9E4">
                <circle id="Oval" cx="22" cy="22" r="22"></circle>
            </g>
            <g id="Icon" transform="translate(10, 10)">
                <polygon id="Path" points="0 0 24 0 24 24 0 24"></polygon>
                <path d="M11.9100036,4.5029446 L12.0162027,4.5 C12.633478,4.50029764 13.1470133,5.01383299 13.1470133,5.64731094 L13.1470133,10.8529867 L18.3526891,10.8529867 C18.9542189,10.8529867 19.4525693,11.3179137 19.496542,11.9139321 L19.5,12.0162027 C19.4997024,12.633478 18.986167,13.1470133 18.3526891,13.1470133 L13.1470133,13.1470133 L13.1470133,18.3526891 C13.1470133,18.9542189 12.6820863,19.4525693 12.0860679,19.496542 L11.9837973,19.5 C11.366522,19.4997024 10.8529867,18.986167 10.8529867,18.3526891 L10.8529867,13.1470133 L5.64731094,13.1470133 C5.04578107,13.1470133 4.54743065,12.6820863 4.50345804,12.0860679 L4.5,11.9837973 C4.50029764,11.366522 5.01383299,10.8529867 5.64731094,10.8529867 L10.8529867,10.8529867 L10.8529867,5.64731094 L10.8590868,5.52848475 C10.9115258,5.02043458 11.2964601,4.60746959 11.7965752,4.51820687 L11.9100036,4.5029446 Z" id="Glyph" fill="#333333" fill-rule="nonzero"></path>
            </g>
        </g>
    </g>
</svg>